<mxfile host="app.diagrams.net" modified="2022-06-23T10:21:57.302Z" agent="5.0 (X11; Linux x86_64) AppleWebKit/537.36 (KHTML, like Gecko) Chrome/102.0.0.0 Safari/537.36" etag="kFUEoanxlEOhN_Ou9UzU" version="20.0.2" type="github">
  <diagram id="RsJ3ks1uPM5Kb78CrbJV" name="Page-1">
    <mxGraphModel dx="2062" dy="1065" grid="1" gridSize="10" guides="1" tooltips="1" connect="1" arrows="1" fold="1" page="1" pageScale="1" pageWidth="1654" pageHeight="2336" math="0" shadow="0">
      <root>
        <mxCell id="0" />
        <mxCell id="1" parent="0" />
        <mxCell id="vkS8wHCYkv136eXItXBd-1" value="" style="endArrow=none;html=1;rounded=0;strokeWidth=4;" edge="1" parent="1">
          <mxGeometry width="50" height="50" relative="1" as="geometry">
            <mxPoint x="1120" y="2310" as="sourcePoint" />
            <mxPoint x="1120" y="19.999999999999545" as="targetPoint" />
          </mxGeometry>
        </mxCell>
        <mxCell id="vkS8wHCYkv136eXItXBd-2" value="Components" style="text;html=1;strokeColor=none;fillColor=none;align=center;verticalAlign=middle;whiteSpace=wrap;rounded=0;fontSize=18;fontStyle=5" vertex="1" parent="1">
          <mxGeometry x="1160" y="10" width="60" height="30" as="geometry" />
        </mxCell>
        <mxCell id="vkS8wHCYkv136eXItXBd-3" value="" style="edgeStyle=orthogonalEdgeStyle;rounded=0;orthogonalLoop=1;jettySize=auto;html=1;fontSize=12;strokeWidth=1;entryX=0;entryY=0.25;entryDx=0;entryDy=0;" edge="1" parent="1" source="vkS8wHCYkv136eXItXBd-5" target="vkS8wHCYkv136eXItXBd-10">
          <mxGeometry relative="1" as="geometry">
            <mxPoint x="1180" y="300" as="targetPoint" />
            <Array as="points">
              <mxPoint x="1150" y="293" />
              <mxPoint x="1180" y="293" />
            </Array>
          </mxGeometry>
        </mxCell>
        <mxCell id="vkS8wHCYkv136eXItXBd-4" style="edgeStyle=orthogonalEdgeStyle;rounded=0;orthogonalLoop=1;jettySize=auto;html=1;fontSize=12;strokeWidth=1;" edge="1" parent="1" source="vkS8wHCYkv136eXItXBd-5">
          <mxGeometry relative="1" as="geometry">
            <mxPoint x="1220" y="240" as="targetPoint" />
            <Array as="points">
              <mxPoint x="1150" y="240" />
              <mxPoint x="1180" y="240" />
            </Array>
          </mxGeometry>
        </mxCell>
        <mxCell id="vkS8wHCYkv136eXItXBd-5" value="IdlesContent" style="swimlane;fontSize=18;" vertex="1" parent="1">
          <mxGeometry x="1140" y="50" width="170" height="130" as="geometry" />
        </mxCell>
        <mxCell id="vkS8wHCYkv136eXItXBd-6" value="&lt;span style=&quot;color: rgb(0, 0, 0); font-family: Helvetica; font-size: 12px; font-style: normal; font-variant-ligatures: normal; font-variant-caps: normal; font-weight: 400; letter-spacing: normal; orphans: 2; text-indent: 0px; text-transform: none; widows: 2; word-spacing: 0px; -webkit-text-stroke-width: 0px; background-color: rgb(248, 249, 250); text-decoration-thickness: initial; text-decoration-style: initial; text-decoration-color: initial; float: none; display: inline !important;&quot;&gt;- Idles (filter by &lt;/span&gt;&lt;span style=&quot;color: rgb(0, 0, 0); font-family: Helvetica; font-size: 12px; font-style: normal; font-variant-ligatures: normal; font-variant-caps: normal; letter-spacing: normal; orphans: 2; text-indent: 0px; text-transform: none; widows: 2; word-spacing: 0px; -webkit-text-stroke-width: 0px; background-color: rgb(248, 249, 250); text-decoration-thickness: initial; text-decoration-style: initial; text-decoration-color: initial; float: none; display: inline !important;&quot;&gt;&lt;b&gt;idle.status, &lt;/b&gt;by&lt;b&gt; idle.idleType&lt;/b&gt;&lt;/span&gt;&lt;span style=&quot;color: rgb(0, 0, 0); font-family: Helvetica; font-size: 12px; font-style: normal; font-variant-ligatures: normal; font-variant-caps: normal; font-weight: 400; letter-spacing: normal; orphans: 2; text-indent: 0px; text-transform: none; widows: 2; word-spacing: 0px; -webkit-text-stroke-width: 0px; background-color: rgb(248, 249, 250); text-decoration-thickness: initial; text-decoration-style: initial; text-decoration-color: initial; float: none; display: inline !important;&quot;&gt;)&lt;br&gt;&lt;/span&gt;&lt;br style=&quot;color: rgb(0, 0, 0); font-family: Helvetica; font-size: 12px; font-style: normal; font-variant-ligatures: normal; font-variant-caps: normal; font-weight: 400; letter-spacing: normal; orphans: 2; text-indent: 0px; text-transform: none; widows: 2; word-spacing: 0px; -webkit-text-stroke-width: 0px; background-color: rgb(248, 249, 250); text-decoration-thickness: initial; text-decoration-style: initial; text-decoration-color: initial;&quot;&gt;&lt;span style=&quot;color: rgb(0, 0, 0); font-family: Helvetica; font-size: 12px; font-style: normal; font-variant-ligatures: normal; font-variant-caps: normal; font-weight: 400; letter-spacing: normal; orphans: 2; text-indent: 0px; text-transform: none; widows: 2; word-spacing: 0px; -webkit-text-stroke-width: 0px; background-color: rgb(248, 249, 250); text-decoration-thickness: initial; text-decoration-style: initial; text-decoration-color: initial;&quot;&gt;- Positions (filter by &lt;/span&gt;&lt;span style=&quot;color: rgb(0, 0, 0); font-family: Helvetica; font-size: 12px; font-style: normal; font-variant-ligatures: normal; font-variant-caps: normal; letter-spacing: normal; orphans: 2; text-indent: 0px; text-transform: none; widows: 2; word-spacing: 0px; -webkit-text-stroke-width: 0px; background-color: rgb(248, 249, 250); text-decoration-thickness: initial; text-decoration-style: initial; text-decoration-color: initial;&quot;&gt;&lt;b&gt;gradeKind, category&lt;/b&gt;&lt;/span&gt;&lt;span style=&quot;color: rgb(0, 0, 0); font-family: Helvetica; font-size: 12px; font-style: normal; font-variant-ligatures: normal; font-variant-caps: normal; font-weight: 400; letter-spacing: normal; orphans: 2; text-indent: 0px; text-transform: none; widows: 2; word-spacing: 0px; -webkit-text-stroke-width: 0px; background-color: rgb(248, 249, 250); text-decoration-thickness: initial; text-decoration-style: initial; text-decoration-color: initial;&quot;&gt;)&lt;/span&gt;" style="text;html=1;strokeColor=none;fillColor=none;align=left;verticalAlign=top;whiteSpace=wrap;rounded=0;fontSize=12;" vertex="1" parent="vkS8wHCYkv136eXItXBd-5">
          <mxGeometry x="10" y="30" width="150" height="90" as="geometry" />
        </mxCell>
        <mxCell id="vkS8wHCYkv136eXItXBd-7" value="PositionsFilter" style="swimlane;fontSize=18;" vertex="1" parent="1">
          <mxGeometry x="1220" y="199.5" width="160" height="60" as="geometry" />
        </mxCell>
        <mxCell id="vkS8wHCYkv136eXItXBd-8" value="- Positions" style="text;html=1;strokeColor=none;fillColor=none;align=left;verticalAlign=top;whiteSpace=wrap;rounded=0;fontSize=12;" vertex="1" parent="vkS8wHCYkv136eXItXBd-7">
          <mxGeometry x="10" y="30" width="120" height="30" as="geometry" />
        </mxCell>
        <mxCell id="vkS8wHCYkv136eXItXBd-9" style="edgeStyle=orthogonalEdgeStyle;rounded=0;orthogonalLoop=1;jettySize=auto;html=1;fontSize=12;strokeWidth=1;" edge="1" parent="1">
          <mxGeometry relative="1" as="geometry">
            <mxPoint x="1300" y="403" as="targetPoint" />
            <Array as="points">
              <mxPoint x="1280" y="403" />
            </Array>
            <mxPoint x="1280" y="333" as="sourcePoint" />
          </mxGeometry>
        </mxCell>
        <mxCell id="vkS8wHCYkv136eXItXBd-10" value="IdlesBlock" style="swimlane;fontSize=18;" vertex="1" parent="1">
          <mxGeometry x="1220" y="280" width="170" height="50" as="geometry" />
        </mxCell>
        <mxCell id="vkS8wHCYkv136eXItXBd-11" value="- Idles" style="text;html=1;align=center;verticalAlign=middle;resizable=0;points=[];autosize=1;strokeColor=none;fillColor=none;fontSize=12;" vertex="1" parent="vkS8wHCYkv136eXItXBd-10">
          <mxGeometry x="10" y="30" width="50" height="20" as="geometry" />
        </mxCell>
        <mxCell id="vkS8wHCYkv136eXItXBd-12" style="edgeStyle=orthogonalEdgeStyle;rounded=0;orthogonalLoop=1;jettySize=auto;html=1;exitX=0.75;exitY=1;exitDx=0;exitDy=0;fontSize=12;strokeWidth=1;" edge="1" parent="1">
          <mxGeometry relative="1" as="geometry">
            <mxPoint x="1380" y="473" as="targetPoint" />
            <Array as="points">
              <mxPoint x="1350" y="423" />
              <mxPoint x="1350" y="473" />
              <mxPoint x="1380" y="473" />
            </Array>
            <mxPoint x="1457.5" y="423" as="sourcePoint" />
          </mxGeometry>
        </mxCell>
        <mxCell id="vkS8wHCYkv136eXItXBd-13" value="IdlesRow" style="swimlane;fontSize=18;" vertex="1" parent="1">
          <mxGeometry x="1300" y="363" width="170" height="60" as="geometry" />
        </mxCell>
        <mxCell id="vkS8wHCYkv136eXItXBd-14" value="- Idles" style="text;html=1;align=center;verticalAlign=middle;resizable=0;points=[];autosize=1;strokeColor=none;fillColor=none;fontSize=12;" vertex="1" parent="vkS8wHCYkv136eXItXBd-13">
          <mxGeometry x="10" y="31" width="50" height="20" as="geometry" />
        </mxCell>
        <mxCell id="vkS8wHCYkv136eXItXBd-15" style="edgeStyle=orthogonalEdgeStyle;rounded=0;orthogonalLoop=1;jettySize=auto;html=1;fontSize=12;strokeWidth=1;entryX=0;entryY=0.5;entryDx=0;entryDy=0;" edge="1" parent="1" source="vkS8wHCYkv136eXItXBd-19" target="vkS8wHCYkv136eXItXBd-21">
          <mxGeometry relative="1" as="geometry">
            <mxPoint x="1430" y="793" as="targetPoint" />
            <Array as="points">
              <mxPoint x="1480" y="903" />
            </Array>
          </mxGeometry>
        </mxCell>
        <mxCell id="vkS8wHCYkv136eXItXBd-16" style="edgeStyle=orthogonalEdgeStyle;rounded=0;orthogonalLoop=1;jettySize=auto;html=1;fontSize=12;strokeWidth=1;" edge="1" parent="1" source="vkS8wHCYkv136eXItXBd-19">
          <mxGeometry relative="1" as="geometry">
            <mxPoint x="1510" y="1110" as="targetPoint" />
            <Array as="points">
              <mxPoint x="1480" y="1110" />
            </Array>
          </mxGeometry>
        </mxCell>
        <mxCell id="vkS8wHCYkv136eXItXBd-17" style="edgeStyle=orthogonalEdgeStyle;rounded=0;orthogonalLoop=1;jettySize=auto;html=1;" edge="1" parent="1" source="vkS8wHCYkv136eXItXBd-19">
          <mxGeometry relative="1" as="geometry">
            <mxPoint x="1510" y="1800" as="targetPoint" />
            <Array as="points">
              <mxPoint x="1480" y="1800" />
              <mxPoint x="1510" y="1800" />
            </Array>
          </mxGeometry>
        </mxCell>
        <mxCell id="vkS8wHCYkv136eXItXBd-18" style="edgeStyle=orthogonalEdgeStyle;rounded=0;orthogonalLoop=1;jettySize=auto;html=1;entryX=0;entryY=0.5;entryDx=0;entryDy=0;" edge="1" parent="1" source="vkS8wHCYkv136eXItXBd-19" target="vkS8wHCYkv136eXItXBd-39">
          <mxGeometry relative="1" as="geometry">
            <mxPoint x="1510" y="1961.3793103448277" as="targetPoint" />
            <Array as="points">
              <mxPoint x="1480" y="1910" />
            </Array>
          </mxGeometry>
        </mxCell>
        <mxCell id="vkS8wHCYkv136eXItXBd-19" value="IdleCard" style="swimlane;fontSize=18;" vertex="1" parent="1">
          <mxGeometry x="1380" y="443" width="240" height="290" as="geometry" />
        </mxCell>
        <mxCell id="vkS8wHCYkv136eXItXBd-20" value="- isBooked (idle.relationships.booking || idle.status)&lt;br&gt;- Probability" style="text;html=1;strokeColor=none;fillColor=none;align=left;verticalAlign=top;whiteSpace=wrap;rounded=0;fontSize=12;" vertex="1" parent="1">
          <mxGeometry x="1390" y="473" width="220" height="250" as="geometry" />
        </mxCell>
        <mxCell id="vkS8wHCYkv136eXItXBd-21" value="IdleUserInfo" style="swimlane;fontSize=18;" vertex="1" parent="1">
          <mxGeometry x="1510" y="763" width="170" height="280" as="geometry" />
        </mxCell>
        <mxCell id="vkS8wHCYkv136eXItXBd-22" value="&lt;i&gt;&lt;b&gt;&lt;u&gt;idle&lt;/u&gt;&lt;/b&gt;&lt;/i&gt;&lt;br&gt;- IdleType (idle с типом idle окрашиваются в красный цвет)&lt;br&gt;- date&lt;br&gt;&lt;i&gt;&lt;b&gt;&lt;u&gt;&lt;br&gt;user &lt;/u&gt;&lt;/b&gt;&lt;/i&gt;&lt;br&gt;- companyEmail&lt;br&gt;- name&lt;br&gt;- linkToUserInfo&lt;br&gt;- linkToUser&lt;br&gt;- avatarUrl&lt;br&gt;- hasCv&lt;br&gt;&lt;br&gt;&lt;i style=&quot;font-weight: bold; text-decoration-line: underline;&quot;&gt;sender&lt;/i&gt;&lt;br&gt;- name" style="text;html=1;strokeColor=none;fillColor=none;align=left;verticalAlign=top;whiteSpace=wrap;rounded=0;fontSize=12;" vertex="1" parent="vkS8wHCYkv136eXItXBd-21">
          <mxGeometry x="10" y="30" width="150" height="240" as="geometry" />
        </mxCell>
        <mxCell id="vkS8wHCYkv136eXItXBd-23" value="Vacations" style="swimlane;fontSize=18;" vertex="1" parent="1">
          <mxGeometry x="1510" y="1073" width="260" height="60" as="geometry" />
        </mxCell>
        <mxCell id="vkS8wHCYkv136eXItXBd-24" value="- user.relationships.idleableVacations" style="text;html=1;align=center;verticalAlign=middle;resizable=0;points=[];autosize=1;strokeColor=none;fillColor=none;fontSize=12;" vertex="1" parent="vkS8wHCYkv136eXItXBd-23">
          <mxGeometry x="10" y="30" width="210" height="20" as="geometry" />
        </mxCell>
        <mxCell id="vkS8wHCYkv136eXItXBd-25" style="edgeStyle=orthogonalEdgeStyle;rounded=0;orthogonalLoop=1;jettySize=auto;html=1;fontSize=12;strokeWidth=1;entryX=0;entryY=0.5;entryDx=0;entryDy=0;" edge="1" parent="1" target="vkS8wHCYkv136eXItXBd-29">
          <mxGeometry relative="1" as="geometry">
            <mxPoint x="1700" y="1633" as="targetPoint" />
            <Array as="points">
              <mxPoint x="1660" y="1393" />
            </Array>
            <mxPoint x="1660" y="1343" as="sourcePoint" />
          </mxGeometry>
        </mxCell>
        <mxCell id="vkS8wHCYkv136eXItXBd-26" style="edgeStyle=orthogonalEdgeStyle;rounded=0;orthogonalLoop=1;jettySize=auto;html=1;entryX=0;entryY=0.75;entryDx=0;entryDy=0;fontSize=12;strokeWidth=1;" edge="1" parent="1">
          <mxGeometry relative="1" as="geometry">
            <Array as="points">
              <mxPoint x="1660" y="1488" />
            </Array>
            <mxPoint x="1660" y="1343" as="sourcePoint" />
            <mxPoint x="1700" y="1488" as="targetPoint" />
          </mxGeometry>
        </mxCell>
        <mxCell id="vkS8wHCYkv136eXItXBd-27" value="IdlePersonalInfo" style="swimlane;fontSize=18;" vertex="1" parent="1">
          <mxGeometry x="1510" y="1171" width="190" height="172" as="geometry" />
        </mxCell>
        <mxCell id="vkS8wHCYkv136eXItXBd-28" value="&lt;i&gt;&lt;b&gt;&lt;u&gt;profile&lt;/u&gt;&lt;/b&gt;&lt;/i&gt;&lt;br&gt;- timeZone&amp;nbsp;&lt;br&gt;&lt;i&gt;&lt;b&gt;&lt;u&gt;&lt;br&gt;user &lt;/u&gt;&lt;/b&gt;&lt;/i&gt;&lt;br&gt;- englishLevel&lt;br&gt;- gradeKind&lt;br&gt;- category&lt;br&gt;&lt;br&gt;isBooked (idle)" style="text;html=1;strokeColor=none;fillColor=none;align=left;verticalAlign=top;whiteSpace=wrap;rounded=0;fontSize=12;" vertex="1" parent="vkS8wHCYkv136eXItXBd-27">
          <mxGeometry x="10" y="30" width="150" height="140" as="geometry" />
        </mxCell>
        <mxCell id="vkS8wHCYkv136eXItXBd-29" value="IdleSalary" style="swimlane;fontSize=18;" vertex="1" parent="1">
          <mxGeometry x="1700" y="1363" width="190" height="60" as="geometry" />
        </mxCell>
        <mxCell id="vkS8wHCYkv136eXItXBd-30" value="- finances info" style="text;html=1;strokeColor=none;fillColor=none;align=left;verticalAlign=top;whiteSpace=wrap;rounded=0;fontSize=12;" vertex="1" parent="vkS8wHCYkv136eXItXBd-29">
          <mxGeometry x="10" y="30" width="150" height="30" as="geometry" />
        </mxCell>
        <mxCell id="vkS8wHCYkv136eXItXBd-31" value="SalaryGrowthPlans" style="swimlane;fontSize=18;" vertex="1" parent="1">
          <mxGeometry x="1700" y="1453" width="260" height="60" as="geometry" />
        </mxCell>
        <mxCell id="vkS8wHCYkv136eXItXBd-32" value="- finances.relationships.salaryGrowthPlans" style="text;html=1;strokeColor=none;fillColor=none;align=left;verticalAlign=top;whiteSpace=wrap;rounded=0;fontSize=12;" vertex="1" parent="vkS8wHCYkv136eXItXBd-31">
          <mxGeometry x="15" y="30" width="230" height="30" as="geometry" />
        </mxCell>
        <mxCell id="vkS8wHCYkv136eXItXBd-33" value="IdleUserSkills" style="swimlane;fontSize=18;" vertex="1" parent="1">
          <mxGeometry x="1510" y="1543" width="260" height="80" as="geometry" />
        </mxCell>
        <mxCell id="vkS8wHCYkv136eXItXBd-34" value="- skills (userSkills.relationships.skill)&lt;br&gt;- userSkills (user.relationships.usersSkills)" style="text;html=1;strokeColor=none;fillColor=none;align=left;verticalAlign=top;whiteSpace=wrap;rounded=0;fontSize=12;" vertex="1" parent="vkS8wHCYkv136eXItXBd-33">
          <mxGeometry x="10" y="30" width="240" height="50" as="geometry" />
        </mxCell>
        <mxCell id="vkS8wHCYkv136eXItXBd-35" style="edgeStyle=orthogonalEdgeStyle;rounded=0;orthogonalLoop=1;jettySize=auto;html=1;fontSize=12;strokeWidth=1;entryX=0;entryY=0.5;entryDx=0;entryDy=0;" edge="1" parent="1" target="vkS8wHCYkv136eXItXBd-33">
          <mxGeometry relative="1" as="geometry">
            <mxPoint x="1580" y="1568" as="targetPoint" />
            <Array as="points">
              <mxPoint x="1480" y="1583" />
            </Array>
            <mxPoint x="1480" y="733" as="sourcePoint" />
          </mxGeometry>
        </mxCell>
        <mxCell id="vkS8wHCYkv136eXItXBd-36" style="edgeStyle=orthogonalEdgeStyle;rounded=0;orthogonalLoop=1;jettySize=auto;html=1;fontSize=12;strokeWidth=1;" edge="1" parent="1" source="vkS8wHCYkv136eXItXBd-19">
          <mxGeometry relative="1" as="geometry">
            <mxPoint x="1510" y="1263" as="targetPoint" />
            <Array as="points">
              <mxPoint x="1480" y="1263" />
            </Array>
            <mxPoint x="1480" y="733" as="sourcePoint" />
          </mxGeometry>
        </mxCell>
        <mxCell id="vkS8wHCYkv136eXItXBd-37" value="BookingComment" style="swimlane;fontSize=18;" vertex="1" parent="1">
          <mxGeometry x="1510" y="1675" width="260" height="165" as="geometry" />
        </mxCell>
        <mxCell id="vkS8wHCYkv136eXItXBd-38" value="- booking (date, operativeComment)&lt;br&gt;- IdleId&lt;br&gt;- requestSlot (нужен для связи projectEmployeeRequest с idle и определения прав на обновление букинга: букинг может быть обновлен только если слот в статусе booked и текущий пользователь автор этого слота)&amp;nbsp;&lt;br&gt;" style="text;html=1;strokeColor=none;fillColor=none;align=left;verticalAlign=top;whiteSpace=wrap;rounded=0;fontSize=12;" vertex="1" parent="vkS8wHCYkv136eXItXBd-37">
          <mxGeometry x="10" y="30" width="240" height="130" as="geometry" />
        </mxCell>
        <mxCell id="vkS8wHCYkv136eXItXBd-39" value="IdleInfo" style="swimlane;fontSize=18;" vertex="1" parent="1">
          <mxGeometry x="1510" y="1860" width="260" height="100" as="geometry" />
        </mxCell>
        <mxCell id="vkS8wHCYkv136eXItXBd-40" value="- IdleId&lt;br&gt;- comment (from idle)&amp;nbsp;&lt;br&gt;- idleReason&lt;br&gt;- project" style="text;html=1;strokeColor=none;fillColor=none;align=left;verticalAlign=top;whiteSpace=wrap;rounded=0;fontSize=12;" vertex="1" parent="vkS8wHCYkv136eXItXBd-39">
          <mxGeometry x="10" y="30" width="240" height="70" as="geometry" />
        </mxCell>
        <mxCell id="vkS8wHCYkv136eXItXBd-41" style="edgeStyle=orthogonalEdgeStyle;rounded=0;orthogonalLoop=1;jettySize=auto;html=1;" edge="1" parent="1" source="vkS8wHCYkv136eXItXBd-43">
          <mxGeometry relative="1" as="geometry">
            <mxPoint x="2070" y="149.99999999999955" as="targetPoint" />
            <Array as="points">
              <mxPoint x="2040" y="150" />
              <mxPoint x="2070" y="150" />
            </Array>
          </mxGeometry>
        </mxCell>
        <mxCell id="vkS8wHCYkv136eXItXBd-42" style="edgeStyle=orthogonalEdgeStyle;rounded=0;orthogonalLoop=1;jettySize=auto;html=1;" edge="1" parent="1">
          <mxGeometry relative="1" as="geometry">
            <mxPoint x="2070" y="330" as="targetPoint" />
            <mxPoint x="2040" y="149.99999999999955" as="sourcePoint" />
            <Array as="points">
              <mxPoint x="2040" y="330" />
            </Array>
          </mxGeometry>
        </mxCell>
        <mxCell id="vkS8wHCYkv136eXItXBd-43" value="Requests" style="swimlane;fontSize=18;" vertex="1" parent="1">
          <mxGeometry x="2000" y="50" width="170" height="40" as="geometry">
            <mxRectangle x="2000" y="50" width="110" height="30" as="alternateBounds" />
          </mxGeometry>
        </mxCell>
        <mxCell id="vkS8wHCYkv136eXItXBd-44" value="RequestForm" style="swimlane;fontSize=18;" vertex="1" parent="1">
          <mxGeometry x="2070" y="120" width="180" height="170" as="geometry" />
        </mxCell>
        <mxCell id="vkS8wHCYkv136eXItXBd-45" value="- projects" style="text;html=1;strokeColor=none;fillColor=none;align=left;verticalAlign=top;whiteSpace=wrap;rounded=0;" vertex="1" parent="vkS8wHCYkv136eXItXBd-44">
          <mxGeometry x="10" y="30" width="150" height="130" as="geometry" />
        </mxCell>
        <mxCell id="vkS8wHCYkv136eXItXBd-46" value="RequestsLayout" style="swimlane;fontSize=18;" vertex="1" parent="1">
          <mxGeometry x="2070" y="300" width="170" height="90" as="geometry" />
        </mxCell>
        <mxCell id="vkS8wHCYkv136eXItXBd-47" value="&lt;h1&gt;Categories&lt;/h1&gt;&lt;div&gt;Получаем всегда все, отдельным запросом, т.к. все категории выводятся в форме создания/редактирования заявки&lt;/div&gt;" style="text;html=1;strokeColor=#6c8ebf;fillColor=#dae8fc;spacing=5;spacingTop=-20;whiteSpace=wrap;overflow=hidden;rounded=0;" vertex="1" parent="1">
          <mxGeometry x="1654" y="60" width="276" height="110" as="geometry" />
        </mxCell>
        <mxCell id="vkS8wHCYkv136eXItXBd-48" value="" style="group" vertex="1" connectable="0" parent="1">
          <mxGeometry x="40" y="20" width="1020" height="750" as="geometry" />
        </mxCell>
        <mxCell id="vkS8wHCYkv136eXItXBd-49" value="Skill" style="swimlane;" vertex="1" parent="vkS8wHCYkv136eXItXBd-48">
          <mxGeometry y="10" width="120" height="100" as="geometry" />
        </mxCell>
        <mxCell id="vkS8wHCYkv136eXItXBd-50" value="&lt;p style=&quot;text-align: left;&quot;&gt;&lt;span style=&quot;font-family: noto_regular; color: rgb(75, 75, 75); font-size: 10pt;&quot;&gt;- name&lt;/span&gt;&lt;/p&gt;&lt;p style=&quot;text-align: left;&quot;&gt;&lt;span style=&quot;font-family: noto_regular; color: rgb(75, 75, 75); font-size: 10pt;&quot;&gt;- priority&lt;/span&gt;&lt;/p&gt;" style="text;html=1;align=center;verticalAlign=middle;resizable=0;points=[];autosize=1;strokeColor=none;fillColor=none;" vertex="1" parent="vkS8wHCYkv136eXItXBd-49">
          <mxGeometry x="10" y="30" width="60" height="70" as="geometry" />
        </mxCell>
        <mxCell id="vkS8wHCYkv136eXItXBd-51" value="CV" style="swimlane;startSize=23;" vertex="1" parent="vkS8wHCYkv136eXItXBd-48">
          <mxGeometry y="260" width="120" height="100" as="geometry" />
        </mxCell>
        <mxCell id="vkS8wHCYkv136eXItXBd-52" value="&lt;p style=&quot;text-align: left;&quot;&gt;&lt;span style=&quot;font-family: noto_regular; font-size: 10pt;&quot;&gt;- gLink&lt;/span&gt;&lt;/p&gt;&lt;p style=&quot;text-align: left;&quot;&gt;&lt;span style=&quot;font-family: noto_regular; font-size: 10pt;&quot;&gt;- linkToCvFile&lt;/span&gt;&lt;/p&gt;" style="text;html=1;align=center;verticalAlign=middle;resizable=0;points=[];autosize=1;strokeColor=none;fillColor=none;container=1;" vertex="1" parent="vkS8wHCYkv136eXItXBd-51">
          <mxGeometry x="10" y="30" width="90" height="70" as="geometry" />
        </mxCell>
        <mxCell id="vkS8wHCYkv136eXItXBd-53" style="edgeStyle=orthogonalEdgeStyle;rounded=0;orthogonalLoop=1;jettySize=auto;html=1;entryX=0.75;entryY=1;entryDx=0;entryDy=0;" edge="1" parent="vkS8wHCYkv136eXItXBd-48" source="vkS8wHCYkv136eXItXBd-54" target="vkS8wHCYkv136eXItXBd-49">
          <mxGeometry relative="1" as="geometry">
            <Array as="points">
              <mxPoint x="90" y="130" />
              <mxPoint x="90" y="130" />
            </Array>
          </mxGeometry>
        </mxCell>
        <mxCell id="vkS8wHCYkv136eXItXBd-54" value="Users Skills" style="swimlane;startSize=23;" vertex="1" parent="vkS8wHCYkv136eXItXBd-48">
          <mxGeometry y="140" width="120" height="100" as="geometry">
            <mxRectangle x="40" y="160" width="100" height="23" as="alternateBounds" />
          </mxGeometry>
        </mxCell>
        <mxCell id="vkS8wHCYkv136eXItXBd-55" value="&lt;p style=&quot;text-align: left;&quot;&gt;&lt;span style=&quot;font-family: noto_regular; color: rgb(75, 75, 75); font-size: 10pt;&quot;&gt;- rate&lt;/span&gt;&lt;/p&gt;&lt;p style=&quot;text-align: left;&quot;&gt;&lt;span style=&quot;font-family: noto_regular; color: rgb(75, 75, 75); font-size: 10pt;&quot;&gt;- priority&lt;/span&gt;&lt;/p&gt;" style="text;html=1;align=center;verticalAlign=middle;resizable=0;points=[];autosize=1;strokeColor=none;fillColor=none;container=1;" vertex="1" parent="vkS8wHCYkv136eXItXBd-54">
          <mxGeometry x="10" y="30" width="60" height="70" as="geometry" />
        </mxCell>
        <mxCell id="vkS8wHCYkv136eXItXBd-56" value="Slot" style="swimlane;startSize=23;" vertex="1" parent="vkS8wHCYkv136eXItXBd-48">
          <mxGeometry y="380" width="120" height="190" as="geometry" />
        </mxCell>
        <mxCell id="vkS8wHCYkv136eXItXBd-57" value="&lt;p style=&quot;text-align: left;&quot;&gt;&lt;span style=&quot;font-family: noto_regular; color: rgb(75, 75, 75); font-size: 10pt;&quot;&gt;- beginDate&lt;/span&gt;&lt;/p&gt;&lt;p style=&quot;text-align: left;&quot;&gt;&lt;span style=&quot;font-family: noto_regular; color: rgb(75, 75, 75); font-size: 10pt;&quot;&gt;- endDate &lt;/span&gt;&lt;/p&gt;&lt;p style=&quot;text-align: left;&quot;&gt;&lt;span style=&quot;font-family: noto_regular; color: rgb(75, 75, 75); font-size: 10pt;&quot;&gt;- isApproved&lt;/span&gt;&lt;/p&gt;&lt;p style=&quot;text-align: left;&quot;&gt;&lt;span style=&quot;font-family: noto_regular; color: rgb(75, 75, 75); font-size: 10pt;&quot;&gt;- isVacation&lt;/span&gt;&lt;/p&gt;&lt;p style=&quot;text-align: left;&quot;&gt;&lt;span style=&quot;font-family: noto_regular; color: rgb(75, 75, 75); font-size: 10pt;&quot;&gt;- isSickLeave&lt;/span&gt;&lt;/p&gt;" style="text;html=1;align=center;verticalAlign=middle;resizable=0;points=[];autosize=1;strokeColor=none;fillColor=none;container=1;" vertex="1" parent="vkS8wHCYkv136eXItXBd-56">
          <mxGeometry x="10" y="35" width="90" height="150" as="geometry" />
        </mxCell>
        <mxCell id="vkS8wHCYkv136eXItXBd-58" value="Profile" style="swimlane;" vertex="1" parent="vkS8wHCYkv136eXItXBd-48">
          <mxGeometry y="590" width="120" height="70" as="geometry" />
        </mxCell>
        <mxCell id="vkS8wHCYkv136eXItXBd-59" value="&lt;p style=&quot;text-align: left;&quot;&gt;&lt;font face=&quot;noto_regular&quot; color=&quot;#4b4b4b&quot;&gt;&lt;span style=&quot;font-size: 13.3333px;&quot;&gt;- timeZone&lt;/span&gt;&lt;/font&gt;&lt;/p&gt;" style="text;html=1;align=center;verticalAlign=middle;resizable=0;points=[];autosize=1;strokeColor=none;fillColor=none;" vertex="1" parent="vkS8wHCYkv136eXItXBd-58">
          <mxGeometry x="5" y="30" width="70" height="40" as="geometry" />
        </mxCell>
        <mxCell id="vkS8wHCYkv136eXItXBd-60" style="edgeStyle=orthogonalEdgeStyle;rounded=0;orthogonalLoop=1;jettySize=auto;html=1;strokeColor=#000066;" edge="1" parent="vkS8wHCYkv136eXItXBd-48" source="vkS8wHCYkv136eXItXBd-63">
          <mxGeometry relative="1" as="geometry">
            <mxPoint x="120" y="220" as="targetPoint" />
            <Array as="points">
              <mxPoint x="120" y="220" />
            </Array>
          </mxGeometry>
        </mxCell>
        <mxCell id="vkS8wHCYkv136eXItXBd-61" value="" style="group;fillColor=default;" vertex="1" connectable="0" parent="vkS8wHCYkv136eXItXBd-48">
          <mxGeometry x="280" y="170" width="120" height="300" as="geometry" />
        </mxCell>
        <mxCell id="vkS8wHCYkv136eXItXBd-62" value="User" style="swimlane;startSize=23;fillColor=#000066;fontColor=#FFFFCC;" vertex="1" parent="vkS8wHCYkv136eXItXBd-61">
          <mxGeometry width="120" height="300" as="geometry" />
        </mxCell>
        <mxCell id="vkS8wHCYkv136eXItXBd-63" value="&lt;p style=&quot;text-align: left;&quot;&gt;&lt;span style=&quot;font-family: noto_regular; color: rgb(75, 75, 75); font-size: 10pt;&quot;&gt;- name&lt;/span&gt;&lt;/p&gt;&lt;p style=&quot;text-align: left;&quot;&gt;&lt;span style=&quot;font-family: noto_regular; color: rgb(75, 75, 75); font-size: 10pt;&quot;&gt;- gradeKind&lt;/span&gt;&lt;/p&gt;&lt;p style=&quot;text-align: left;&quot;&gt;&lt;span style=&quot;font-family: noto_regular; color: rgb(75, 75, 75); font-size: 10pt;&quot;&gt;- category&lt;/span&gt;&lt;/p&gt;&lt;p style=&quot;text-align: left;&quot;&gt;&lt;span style=&quot;font-family: noto_regular; color: rgb(75, 75, 75); font-size: 10pt;&quot;&gt;- companyEmail&lt;/span&gt;&lt;/p&gt;&lt;p style=&quot;text-align: left;&quot;&gt;&lt;span style=&quot;font-family: noto_regular; color: rgb(75, 75, 75); font-size: 10pt;&quot;&gt;- hasCv&lt;/span&gt;&lt;/p&gt;&lt;p style=&quot;text-align: left;&quot;&gt;&lt;span style=&quot;font-family: noto_regular; color: rgb(75, 75, 75); font-size: 10pt;&quot;&gt;- linkToUser&lt;/span&gt;&lt;/p&gt;&lt;p style=&quot;text-align: left;&quot;&gt;&lt;span style=&quot;font-family: noto_regular; color: rgb(75, 75, 75); font-size: 10pt;&quot;&gt;- linkToUserInfo&lt;/span&gt;&lt;/p&gt;&lt;p style=&quot;text-align: left;&quot;&gt;&lt;span style=&quot;font-family: noto_regular; color: rgb(75, 75, 75); font-size: 10pt;&quot;&gt;- avatarUrl&lt;/span&gt;&lt;/p&gt;&lt;p style=&quot;text-align: left;&quot;&gt;&lt;span style=&quot;font-family: noto_regular; color: rgb(75, 75, 75); font-size: 10pt;&quot;&gt;- englishLevel&lt;/span&gt;&lt;/p&gt;&lt;p style=&quot;text-align: left;&quot;&gt;&lt;span style=&quot;font-family: noto_regular; color: rgb(75, 75, 75); font-size: 10pt;&quot;&gt;- englishLevelIndex&lt;/span&gt;&lt;/p&gt;" style="text;html=1;align=center;verticalAlign=middle;resizable=0;points=[];autosize=1;strokeColor=none;fillColor=none;container=1;" vertex="1" parent="vkS8wHCYkv136eXItXBd-61">
          <mxGeometry y="20" width="120" height="280" as="geometry" />
        </mxCell>
        <mxCell id="vkS8wHCYkv136eXItXBd-64" style="edgeStyle=orthogonalEdgeStyle;rounded=0;orthogonalLoop=1;jettySize=auto;html=1;entryX=0.012;entryY=0.074;entryDx=0;entryDy=0;entryPerimeter=0;" edge="1" parent="vkS8wHCYkv136eXItXBd-48" source="vkS8wHCYkv136eXItXBd-54" target="vkS8wHCYkv136eXItXBd-63">
          <mxGeometry relative="1" as="geometry">
            <Array as="points">
              <mxPoint x="200" y="210" />
            </Array>
          </mxGeometry>
        </mxCell>
        <mxCell id="vkS8wHCYkv136eXItXBd-65" value="Хочется оставить 1-стороннюю связь. У &lt;b&gt;&lt;i&gt;User&lt;/i&gt;&lt;/b&gt;&lt;br&gt;Либо оставить 1-стороннюю связь&amp;nbsp; у &lt;b&gt;&lt;i&gt;UsersSkills&lt;/i&gt;&lt;/b&gt; и тащить их отдельным эндпоинтом &lt;b&gt;&lt;i&gt;/web_api/v1/idles/users_skills&lt;/i&gt;&lt;/b&gt;" style="shape=callout;whiteSpace=wrap;html=1;perimeter=calloutPerimeter;" vertex="1" parent="vkS8wHCYkv136eXItXBd-48">
          <mxGeometry x="140" y="30" width="190" height="159" as="geometry" />
        </mxCell>
        <mxCell id="vkS8wHCYkv136eXItXBd-66" value="Idle Reason" style="swimlane;" vertex="1" parent="vkS8wHCYkv136eXItXBd-48">
          <mxGeometry x="520" width="120" height="70" as="geometry" />
        </mxCell>
        <mxCell id="vkS8wHCYkv136eXItXBd-67" value="&lt;p style=&quot;text-align: left;&quot;&gt;&lt;font face=&quot;noto_regular&quot; color=&quot;#4b4b4b&quot;&gt;&lt;span style=&quot;font-size: 13.3333px;&quot;&gt;- reason&lt;/span&gt;&lt;/font&gt;&lt;/p&gt;" style="text;html=1;align=center;verticalAlign=middle;resizable=0;points=[];autosize=1;strokeColor=none;fillColor=none;" vertex="1" parent="vkS8wHCYkv136eXItXBd-66">
          <mxGeometry x="10" y="30" width="60" height="40" as="geometry" />
        </mxCell>
        <mxCell id="vkS8wHCYkv136eXItXBd-68" value="Category" style="swimlane;" vertex="1" parent="vkS8wHCYkv136eXItXBd-48">
          <mxGeometry x="350" y="550" width="120" height="70" as="geometry" />
        </mxCell>
        <mxCell id="vkS8wHCYkv136eXItXBd-69" value="&lt;p style=&quot;text-align: left;&quot;&gt;&lt;font face=&quot;noto_regular&quot; color=&quot;#4b4b4b&quot;&gt;&lt;span style=&quot;font-size: 13.3333px;&quot;&gt;- name&lt;/span&gt;&lt;/font&gt;&lt;/p&gt;" style="text;html=1;align=center;verticalAlign=middle;resizable=0;points=[];autosize=1;strokeColor=none;fillColor=none;" vertex="1" parent="vkS8wHCYkv136eXItXBd-68">
          <mxGeometry x="15" y="30" width="50" height="40" as="geometry" />
        </mxCell>
        <mxCell id="vkS8wHCYkv136eXItXBd-70" style="edgeStyle=orthogonalEdgeStyle;rounded=0;orthogonalLoop=1;jettySize=auto;html=1;strokeColor=#FFFF00;strokeWidth=3;" edge="1" parent="vkS8wHCYkv136eXItXBd-48" source="vkS8wHCYkv136eXItXBd-73">
          <mxGeometry relative="1" as="geometry">
            <Array as="points">
              <mxPoint x="600" y="120" />
              <mxPoint x="600" y="120" />
            </Array>
            <mxPoint x="600" y="70" as="targetPoint" />
          </mxGeometry>
        </mxCell>
        <mxCell id="vkS8wHCYkv136eXItXBd-71" style="edgeStyle=orthogonalEdgeStyle;rounded=0;orthogonalLoop=1;jettySize=auto;html=1;strokeColor=#FFFF00;strokeWidth=3;" edge="1" parent="vkS8wHCYkv136eXItXBd-48" source="vkS8wHCYkv136eXItXBd-73">
          <mxGeometry relative="1" as="geometry">
            <mxPoint x="399" y="221" as="targetPoint" />
            <Array as="points">
              <mxPoint x="465" y="221" />
              <mxPoint x="399" y="221" />
            </Array>
          </mxGeometry>
        </mxCell>
        <mxCell id="vkS8wHCYkv136eXItXBd-72" value="User, Sender" style="edgeLabel;html=1;align=center;verticalAlign=middle;resizable=0;points=[];" vertex="1" connectable="0" parent="vkS8wHCYkv136eXItXBd-71">
          <mxGeometry x="0.2646" relative="1" as="geometry">
            <mxPoint x="1" as="offset" />
          </mxGeometry>
        </mxCell>
        <mxCell id="vkS8wHCYkv136eXItXBd-73" value="Idle " style="swimlane;fillColor=#FFFF00;" vertex="1" parent="vkS8wHCYkv136eXItXBd-48">
          <mxGeometry x="530" y="130" width="120" height="181" as="geometry" />
        </mxCell>
        <mxCell id="vkS8wHCYkv136eXItXBd-74" value="&lt;p style=&quot;text-align: left;&quot;&gt;&lt;span style=&quot;font-family: noto_regular; color: rgb(75, 75, 75); font-size: 10pt;&quot;&gt;- comment&lt;/span&gt;&lt;/p&gt;&lt;p style=&quot;text-align: left;&quot;&gt;&lt;span style=&quot;font-family: noto_regular; color: rgb(75, 75, 75); font-size: 10pt;&quot;&gt;- idleType&lt;/span&gt;&lt;/p&gt;&lt;p style=&quot;text-align: left;&quot;&gt;&lt;span style=&quot;font-family: noto_regular; color: rgb(75, 75, 75); font-size: 10pt;&quot;&gt;- probability&lt;/span&gt;&lt;/p&gt;&lt;p style=&quot;text-align: left;&quot;&gt;&lt;span style=&quot;font-family: noto_regular; color: rgb(75, 75, 75); font-size: 10pt;&quot;&gt;- status&lt;/span&gt;&lt;/p&gt;&lt;p style=&quot;text-align: left;&quot;&gt;&lt;span style=&quot;font-family: noto_regular; color: rgb(75, 75, 75); font-size: 10pt;&quot;&gt;- date&lt;/span&gt;&lt;/p&gt;" style="text;html=1;align=center;verticalAlign=middle;resizable=0;points=[];autosize=1;strokeColor=none;fillColor=none;" vertex="1" parent="vkS8wHCYkv136eXItXBd-73">
          <mxGeometry x="10" y="30" width="80" height="150" as="geometry" />
        </mxCell>
        <mxCell id="vkS8wHCYkv136eXItXBd-75" style="edgeStyle=orthogonalEdgeStyle;rounded=0;orthogonalLoop=1;jettySize=auto;html=1;strokeColor=#6666FF;strokeWidth=2;" edge="1" parent="vkS8wHCYkv136eXItXBd-48" source="vkS8wHCYkv136eXItXBd-77">
          <mxGeometry relative="1" as="geometry">
            <mxPoint x="600" y="310" as="targetPoint" />
            <Array as="points">
              <mxPoint x="600" y="311" />
            </Array>
          </mxGeometry>
        </mxCell>
        <mxCell id="vkS8wHCYkv136eXItXBd-76" style="edgeStyle=orthogonalEdgeStyle;rounded=0;orthogonalLoop=1;jettySize=auto;html=1;strokeWidth=2;strokeColor=#6666FF;" edge="1" parent="vkS8wHCYkv136eXItXBd-48" source="vkS8wHCYkv136eXItXBd-77">
          <mxGeometry relative="1" as="geometry">
            <mxPoint x="470" y="580" as="targetPoint" />
            <Array as="points">
              <mxPoint x="470" y="580" />
            </Array>
          </mxGeometry>
        </mxCell>
        <mxCell id="vkS8wHCYkv136eXItXBd-77" value="Request Slot" style="swimlane;fillColor=#6666FF;" vertex="1" parent="vkS8wHCYkv136eXItXBd-48">
          <mxGeometry x="550" y="390" width="140" height="340" as="geometry">
            <mxRectangle x="640" y="540" width="110" height="23" as="alternateBounds" />
          </mxGeometry>
        </mxCell>
        <mxCell id="vkS8wHCYkv136eXItXBd-78" value="&lt;p style=&quot;text-align: left;&quot;&gt;&lt;span style=&quot;font-family: noto_regular; color: rgb(75, 75, 75); font-size: 10pt;&quot;&gt;- rate &lt;/span&gt;&lt;/p&gt;&lt;p style=&quot;text-align: left;&quot;&gt;&lt;span style=&quot;font-family: noto_regular; color: rgb(75, 75, 75); font-size: 10pt;&quot;&gt;- startOfWork&lt;/span&gt;&lt;/p&gt;&lt;p style=&quot;text-align: left;&quot;&gt;&lt;span style=&quot;font-family: noto_regular; color: rgb(75, 75, 75); font-size: 10pt;&quot;&gt;- englishLevel &lt;/span&gt;&lt;/p&gt;&lt;p style=&quot;text-align: left;&quot;&gt;&lt;span style=&quot;font-family: noto_regular; color: rgb(75, 75, 75); font-size: 10pt;&quot;&gt;- desiredDate &lt;/span&gt;&lt;/p&gt;&lt;p style=&quot;text-align: left;&quot;&gt;&lt;span style=&quot;font-family: noto_regular; color: rgb(75, 75, 75); font-size: 10pt;&quot;&gt;- optional&lt;/span&gt;&lt;/p&gt;&lt;p style=&quot;text-align: left;&quot;&gt;&lt;span style=&quot;font-family: noto_regular; color: rgb(75, 75, 75); font-size: 10pt;&quot;&gt;- status &lt;/span&gt;&lt;/p&gt;&lt;p style=&quot;text-align: left;&quot;&gt;&lt;span style=&quot;font-family: noto_regular; color: rgb(75, 75, 75); font-size: 10pt;&quot;&gt;- timezoneTolerance&lt;/span&gt;&lt;/p&gt;&lt;p style=&quot;text-align: left;&quot;&gt;&lt;span style=&quot;font-family: noto_regular; color: rgb(75, 75, 75); font-size: 10pt;&quot;&gt;- description&lt;/span&gt;&lt;/p&gt;&lt;p style=&quot;text-align: left;&quot;&gt;&lt;span style=&quot;font-family: noto_regular; color: rgb(75, 75, 75); font-size: 10pt;&quot;&gt;- grades &lt;/span&gt;&lt;/p&gt;&lt;p style=&quot;text-align: left;&quot;&gt;&lt;span style=&quot;font-family: noto_regular; color: rgb(75, 75, 75); font-size: 10pt;&quot;&gt;- workdayTimeZone &lt;/span&gt;&lt;/p&gt;&lt;p style=&quot;text-align: left;&quot;&gt;&lt;span style=&quot;font-family: noto_regular; color: rgb(75, 75, 75); font-size: 10pt;&quot;&gt;- englishLevelIndex&lt;/span&gt;&lt;/p&gt;" style="text;html=1;align=center;verticalAlign=middle;resizable=0;points=[];autosize=1;strokeColor=none;fillColor=none;" vertex="1" parent="vkS8wHCYkv136eXItXBd-77">
          <mxGeometry x="10" y="30" width="120" height="300" as="geometry" />
        </mxCell>
        <mxCell id="vkS8wHCYkv136eXItXBd-79" style="edgeStyle=orthogonalEdgeStyle;rounded=0;orthogonalLoop=1;jettySize=auto;html=1;strokeColor=#FFFF00;strokeWidth=3;" edge="1" parent="vkS8wHCYkv136eXItXBd-48" source="vkS8wHCYkv136eXItXBd-74" target="vkS8wHCYkv136eXItXBd-77">
          <mxGeometry relative="1" as="geometry">
            <Array as="points">
              <mxPoint x="590" y="330" />
              <mxPoint x="590" y="330" />
            </Array>
            <mxPoint x="580" y="521" as="targetPoint" />
          </mxGeometry>
        </mxCell>
        <mxCell id="vkS8wHCYkv136eXItXBd-80" value="Project" style="swimlane;startSize=23;" vertex="1" parent="vkS8wHCYkv136eXItXBd-48">
          <mxGeometry x="770" width="210" height="200" as="geometry">
            <mxRectangle x="40" y="160" width="100" height="23" as="alternateBounds" />
          </mxGeometry>
        </mxCell>
        <mxCell id="vkS8wHCYkv136eXItXBd-81" value="&lt;p style=&quot;&quot;&gt;&lt;span style=&quot;font-family: noto_regular; color: rgb(75, 75, 75); font-size: 10pt;&quot;&gt;-&amp;nbsp;&lt;/span&gt;&lt;span style=&quot;font-family: noto_regular; color: var(--color-syntax-2); font-size: 10pt;&quot;&gt;available&lt;/span&gt;&lt;/p&gt;&lt;p style=&quot;&quot;&gt;&lt;span style=&quot;font-family: noto_regular; color: var(--color-syntax-2); font-size: 10pt;&quot;&gt;- linkToProject&lt;/span&gt;&lt;span style=&quot;font-family: noto_regular; color: rgb(32, 33, 36); font-size: 10pt;&quot;&gt;:&lt;/span&gt;&lt;/p&gt;&lt;p style=&quot;&quot;&gt;&lt;span style=&quot;font-family: noto_regular; color: var(--color-syntax-2); font-size: 10pt;&quot;&gt;- linkToProjectInfo&lt;/span&gt;&lt;/p&gt;&lt;p style=&quot;&quot;&gt;&lt;span style=&quot;font-family: noto_regular; color: var(--color-syntax-2); font-size: 10pt; background-color: rgb(255, 230, 204);&quot;&gt;- name (используется&amp;nbsp;&lt;/span&gt;&lt;span style=&quot;background-color: rgb(255, 230, 204); color: var(--color-syntax-2); font-family: noto_regular; font-size: 10pt;&quot;&gt;&amp;nbsp;только это)&lt;/span&gt;&lt;/p&gt;&lt;p style=&quot;&quot;&gt;&lt;span style=&quot;font-family: noto_regular; color: var(--color-syntax-2); font-size: 10pt;&quot;&gt;- status&lt;/span&gt;&lt;/p&gt;" style="text;html=1;strokeColor=none;fillColor=none;align=left;verticalAlign=top;whiteSpace=wrap;rounded=0;" vertex="1" parent="vkS8wHCYkv136eXItXBd-80">
          <mxGeometry x="9" y="30" width="201" height="155" as="geometry" />
        </mxCell>
        <mxCell id="vkS8wHCYkv136eXItXBd-82" style="edgeStyle=orthogonalEdgeStyle;rounded=0;orthogonalLoop=1;jettySize=auto;html=1;strokeColor=#FF9999;strokeWidth=2;exitX=0;exitY=0.5;exitDx=0;exitDy=0;" edge="1" parent="vkS8wHCYkv136eXItXBd-48" source="vkS8wHCYkv136eXItXBd-85">
          <mxGeometry relative="1" as="geometry">
            <mxPoint x="827" y="352.69" as="sourcePoint" />
            <mxPoint x="400" y="352" as="targetPoint" />
            <Array as="points">
              <mxPoint x="837" y="352" />
            </Array>
          </mxGeometry>
        </mxCell>
        <mxCell id="vkS8wHCYkv136eXItXBd-83" value="Author" style="edgeLabel;html=1;align=center;verticalAlign=middle;resizable=0;points=[];" vertex="1" connectable="0" parent="vkS8wHCYkv136eXItXBd-82">
          <mxGeometry x="-0.7031" y="-1" relative="1" as="geometry">
            <mxPoint x="-65" y="-1" as="offset" />
          </mxGeometry>
        </mxCell>
        <mxCell id="vkS8wHCYkv136eXItXBd-84" style="edgeStyle=orthogonalEdgeStyle;rounded=0;orthogonalLoop=1;jettySize=auto;html=1;strokeColor=#FF9999;strokeWidth=2;startArrow=none;" edge="1" parent="vkS8wHCYkv136eXItXBd-48">
          <mxGeometry relative="1" as="geometry">
            <mxPoint x="690" y="510" as="targetPoint" />
            <Array as="points">
              <mxPoint x="800" y="510" />
            </Array>
            <mxPoint x="800" y="511" as="sourcePoint" />
          </mxGeometry>
        </mxCell>
        <mxCell id="vkS8wHCYkv136eXItXBd-85" value="Employee Request" style="swimlane;startSize=23;fillColor=#FF9999;strokeColor=#000066;" vertex="1" parent="vkS8wHCYkv136eXItXBd-48">
          <mxGeometry x="870" y="290" width="150" height="125" as="geometry">
            <mxRectangle x="910" y="310" width="160" height="23" as="alternateBounds" />
          </mxGeometry>
        </mxCell>
        <mxCell id="vkS8wHCYkv136eXItXBd-86" value="&lt;p style=&quot;text-align: left;&quot;&gt;&lt;span style=&quot;font-family: noto_regular; color: rgb(75, 75, 75); font-size: 10pt;&quot;&gt;- essence&lt;/span&gt;&lt;/p&gt;&lt;p style=&quot;text-align: left;&quot;&gt;&lt;span style=&quot;font-family: noto_regular; color: rgb(75, 75, 75); font-size: 10pt;&quot;&gt;- name&lt;/span&gt;&lt;/p&gt;&lt;p style=&quot;text-align: left;&quot;&gt;&lt;span style=&quot;font-family: noto_regular; color: rgb(75, 75, 75); font-size: 10pt;&quot;&gt;- status&lt;/span&gt;&lt;/p&gt;" style="text;html=1;align=center;verticalAlign=middle;resizable=0;points=[];autosize=1;strokeColor=none;fillColor=none;container=1;" vertex="1" parent="vkS8wHCYkv136eXItXBd-85">
          <mxGeometry x="20" y="25" width="60" height="100" as="geometry" />
        </mxCell>
        <mxCell id="vkS8wHCYkv136eXItXBd-87" style="edgeStyle=orthogonalEdgeStyle;rounded=0;orthogonalLoop=1;jettySize=auto;html=1;strokeColor=#6666FF;strokeWidth=2;" edge="1" parent="vkS8wHCYkv136eXItXBd-48" source="vkS8wHCYkv136eXItXBd-77" target="vkS8wHCYkv136eXItXBd-86">
          <mxGeometry relative="1" as="geometry">
            <mxPoint x="1280" y="380" as="targetPoint" />
            <Array as="points">
              <mxPoint x="900" y="500" />
            </Array>
          </mxGeometry>
        </mxCell>
        <mxCell id="vkS8wHCYkv136eXItXBd-88" style="edgeStyle=orthogonalEdgeStyle;rounded=0;orthogonalLoop=1;jettySize=auto;html=1;strokeColor=#00CC00;strokeWidth=2;exitX=1;exitY=0.75;exitDx=0;exitDy=0;startArrow=none;" edge="1" parent="vkS8wHCYkv136eXItXBd-48">
          <mxGeometry relative="1" as="geometry">
            <mxPoint x="650" y="280" as="targetPoint" />
            <mxPoint x="770" y="279.75" as="sourcePoint" />
            <Array as="points">
              <mxPoint x="742" y="280" />
            </Array>
          </mxGeometry>
        </mxCell>
        <mxCell id="vkS8wHCYkv136eXItXBd-89" style="edgeStyle=orthogonalEdgeStyle;rounded=0;orthogonalLoop=1;jettySize=auto;html=1;strokeColor=#00CC66;strokeWidth=2;startArrow=none;" edge="1" parent="vkS8wHCYkv136eXItXBd-48">
          <mxGeometry relative="1" as="geometry">
            <mxPoint x="786" y="620" as="sourcePoint" />
            <mxPoint x="690" y="620" as="targetPoint" />
            <Array as="points">
              <mxPoint x="786" y="620" />
            </Array>
          </mxGeometry>
        </mxCell>
        <mxCell id="vkS8wHCYkv136eXItXBd-90" style="edgeStyle=orthogonalEdgeStyle;rounded=0;orthogonalLoop=1;jettySize=auto;html=1;strokeColor=#000066;" edge="1" parent="vkS8wHCYkv136eXItXBd-48" source="vkS8wHCYkv136eXItXBd-62">
          <mxGeometry relative="1" as="geometry">
            <mxPoint x="120" y="450" as="targetPoint" />
            <Array as="points">
              <mxPoint x="120" y="450" />
            </Array>
          </mxGeometry>
        </mxCell>
        <mxCell id="vkS8wHCYkv136eXItXBd-91" value="Idelable Vacation" style="edgeLabel;html=1;align=center;verticalAlign=middle;resizable=0;points=[];" vertex="1" connectable="0" parent="vkS8wHCYkv136eXItXBd-90">
          <mxGeometry x="0.2" y="-4" relative="1" as="geometry">
            <mxPoint as="offset" />
          </mxGeometry>
        </mxCell>
        <mxCell id="vkS8wHCYkv136eXItXBd-92" style="edgeStyle=orthogonalEdgeStyle;rounded=0;orthogonalLoop=1;jettySize=auto;html=1;strokeColor=#000066;" edge="1" parent="vkS8wHCYkv136eXItXBd-48" source="vkS8wHCYkv136eXItXBd-62">
          <mxGeometry relative="1" as="geometry">
            <mxPoint x="120" y="320" as="targetPoint" />
            <Array as="points">
              <mxPoint x="120" y="320" />
            </Array>
          </mxGeometry>
        </mxCell>
        <mxCell id="vkS8wHCYkv136eXItXBd-93" style="edgeStyle=orthogonalEdgeStyle;rounded=0;orthogonalLoop=1;jettySize=auto;html=1;strokeColor=#000066;" edge="1" parent="vkS8wHCYkv136eXItXBd-48" source="vkS8wHCYkv136eXItXBd-62">
          <mxGeometry relative="1" as="geometry">
            <Array as="points">
              <mxPoint x="290" y="620" />
              <mxPoint x="120" y="620" />
            </Array>
            <mxPoint x="120" y="620" as="targetPoint" />
          </mxGeometry>
        </mxCell>
        <mxCell id="vkS8wHCYkv136eXItXBd-94" style="edgeStyle=orthogonalEdgeStyle;rounded=0;orthogonalLoop=1;jettySize=auto;html=1;entryX=0.25;entryY=0;entryDx=0;entryDy=0;strokeColor=#000066;" edge="1" parent="vkS8wHCYkv136eXItXBd-48" source="vkS8wHCYkv136eXItXBd-63" target="vkS8wHCYkv136eXItXBd-68">
          <mxGeometry relative="1" as="geometry">
            <Array as="points">
              <mxPoint x="380" y="480" />
              <mxPoint x="380" y="480" />
            </Array>
          </mxGeometry>
        </mxCell>
        <mxCell id="vkS8wHCYkv136eXItXBd-95" style="edgeStyle=orthogonalEdgeStyle;rounded=0;orthogonalLoop=1;jettySize=auto;html=1;entryX=0.317;entryY=0.996;entryDx=0;entryDy=0;entryPerimeter=0;strokeColor=#00CC66;strokeWidth=2;exitX=0.631;exitY=1.002;exitDx=0;exitDy=0;exitPerimeter=0;" edge="1" parent="vkS8wHCYkv136eXItXBd-48" source="vkS8wHCYkv136eXItXBd-102" target="vkS8wHCYkv136eXItXBd-63">
          <mxGeometry relative="1" as="geometry">
            <Array as="points">
              <mxPoint x="879" y="750" />
              <mxPoint x="318" y="750" />
            </Array>
            <mxPoint x="1040" y="720" as="sourcePoint" />
          </mxGeometry>
        </mxCell>
        <mxCell id="vkS8wHCYkv136eXItXBd-96" value="Author" style="edgeLabel;html=1;align=center;verticalAlign=middle;resizable=0;points=[];" vertex="1" connectable="0" parent="vkS8wHCYkv136eXItXBd-95">
          <mxGeometry x="-0.4488" relative="1" as="geometry">
            <mxPoint as="offset" />
          </mxGeometry>
        </mxCell>
        <mxCell id="vkS8wHCYkv136eXItXBd-97" style="edgeStyle=orthogonalEdgeStyle;rounded=0;orthogonalLoop=1;jettySize=auto;html=1;strokeColor=#FFFF00;strokeWidth=3;" edge="1" parent="vkS8wHCYkv136eXItXBd-48" source="vkS8wHCYkv136eXItXBd-73">
          <mxGeometry relative="1" as="geometry">
            <mxPoint x="530" y="220.5" as="sourcePoint" />
            <mxPoint x="399" y="221" as="targetPoint" />
            <Array as="points">
              <mxPoint x="465" y="221" />
              <mxPoint x="399" y="221" />
            </Array>
          </mxGeometry>
        </mxCell>
        <mxCell id="vkS8wHCYkv136eXItXBd-98" value="User, Sender" style="edgeLabel;html=1;align=center;verticalAlign=middle;resizable=0;points=[];" vertex="1" connectable="0" parent="vkS8wHCYkv136eXItXBd-97">
          <mxGeometry x="0.2646" relative="1" as="geometry">
            <mxPoint x="1" as="offset" />
          </mxGeometry>
        </mxCell>
        <mxCell id="vkS8wHCYkv136eXItXBd-99" style="edgeStyle=orthogonalEdgeStyle;rounded=0;orthogonalLoop=1;jettySize=auto;html=1;strokeWidth=2;strokeColor=#FF9999;" edge="1" parent="vkS8wHCYkv136eXItXBd-48" source="vkS8wHCYkv136eXItXBd-85">
          <mxGeometry relative="1" as="geometry">
            <Array as="points">
              <mxPoint x="880" y="200" />
              <mxPoint x="880" y="200" />
            </Array>
            <mxPoint x="1280" y="247.5" as="sourcePoint" />
            <mxPoint x="880" y="200" as="targetPoint" />
          </mxGeometry>
        </mxCell>
        <mxCell id="vkS8wHCYkv136eXItXBd-100" style="edgeStyle=orthogonalEdgeStyle;rounded=0;orthogonalLoop=1;jettySize=auto;html=1;strokeWidth=3;strokeColor=#FFFF00;" edge="1" parent="vkS8wHCYkv136eXItXBd-48" source="vkS8wHCYkv136eXItXBd-73">
          <mxGeometry relative="1" as="geometry">
            <Array as="points">
              <mxPoint x="770" y="170" />
              <mxPoint x="770" y="170" />
            </Array>
            <mxPoint x="650" y="160.02857142857135" as="sourcePoint" />
            <mxPoint x="770" y="170" as="targetPoint" />
          </mxGeometry>
        </mxCell>
        <mxCell id="vkS8wHCYkv136eXItXBd-101" value="Booking" style="swimlane;startSize=23;fillColor=#00CC66;" vertex="1" parent="vkS8wHCYkv136eXItXBd-48">
          <mxGeometry x="787" y="600" width="170" height="120" as="geometry">
            <mxRectangle x="827" y="620" width="100" height="23" as="alternateBounds" />
          </mxGeometry>
        </mxCell>
        <mxCell id="vkS8wHCYkv136eXItXBd-102" value="&lt;p style=&quot;text-align: left;&quot;&gt;&lt;span style=&quot;font-family: noto_regular; color: rgb(75, 75, 75); font-size: 10pt;&quot;&gt;- operativeComment &lt;/span&gt;&lt;/p&gt;&lt;p style=&quot;text-align: left;&quot;&gt;&lt;span style=&quot;font-family: noto_regular; color: rgb(75, 75, 75); font-size: 10pt;&quot;&gt;- resultantComment &lt;/span&gt;&lt;/p&gt;&lt;p style=&quot;text-align: left;&quot;&gt;&lt;span style=&quot;font-family: noto_regular; color: rgb(75, 75, 75); font-size: 10pt;&quot;&gt;- bookingDate&lt;/span&gt;&lt;/p&gt;" style="text;html=1;align=center;verticalAlign=middle;resizable=0;points=[];autosize=1;strokeColor=none;fillColor=none;container=1;" vertex="1" parent="vkS8wHCYkv136eXItXBd-101">
          <mxGeometry x="10" y="20" width="130" height="100" as="geometry" />
        </mxCell>
        <mxCell id="vkS8wHCYkv136eXItXBd-103" style="edgeStyle=orthogonalEdgeStyle;rounded=0;orthogonalLoop=1;jettySize=auto;html=1;entryX=0;entryY=0.25;entryDx=0;entryDy=0;strokeWidth=2;strokeColor=#6666FF;" edge="1" parent="vkS8wHCYkv136eXItXBd-48" source="vkS8wHCYkv136eXItXBd-77" target="vkS8wHCYkv136eXItXBd-101">
          <mxGeometry relative="1" as="geometry">
            <Array as="points">
              <mxPoint x="750" y="630" />
              <mxPoint x="750" y="630" />
            </Array>
          </mxGeometry>
        </mxCell>
        <mxCell id="vkS8wHCYkv136eXItXBd-104" value="" style="edgeStyle=orthogonalEdgeStyle;rounded=0;orthogonalLoop=1;jettySize=auto;html=1;strokeWidth=3;strokeColor=#FFFF00;endArrow=none;" edge="1" parent="vkS8wHCYkv136eXItXBd-48" source="vkS8wHCYkv136eXItXBd-73">
          <mxGeometry relative="1" as="geometry">
            <mxPoint x="650" y="270" as="sourcePoint" />
            <mxPoint x="737" y="270.5" as="targetPoint" />
            <Array as="points">
              <mxPoint x="694" y="270" />
            </Array>
          </mxGeometry>
        </mxCell>
        <mxCell id="vkS8wHCYkv136eXItXBd-105" style="edgeStyle=orthogonalEdgeStyle;rounded=0;orthogonalLoop=1;jettySize=auto;html=1;strokeWidth=3;strokeColor=#FFFF00;startArrow=none;exitX=0;exitY=0.5;exitDx=0;exitDy=0;" edge="1" parent="vkS8wHCYkv136eXItXBd-48" target="vkS8wHCYkv136eXItXBd-101">
          <mxGeometry relative="1" as="geometry">
            <mxPoint x="735.0500000000002" y="269.5" as="sourcePoint" />
            <Array as="points">
              <mxPoint x="830" y="270" />
            </Array>
          </mxGeometry>
        </mxCell>
        <mxCell id="vkS8wHCYkv136eXItXBd-106" value="" style="edgeStyle=orthogonalEdgeStyle;rounded=0;orthogonalLoop=1;jettySize=auto;html=1;strokeColor=#00CC00;strokeWidth=2;exitX=0.186;exitY=0.011;exitDx=0;exitDy=0;exitPerimeter=0;endArrow=none;" edge="1" parent="vkS8wHCYkv136eXItXBd-48" source="vkS8wHCYkv136eXItXBd-101">
          <mxGeometry relative="1" as="geometry">
            <mxPoint x="770" y="280" as="targetPoint" />
            <mxPoint x="818.6199999999999" y="601.3199999999999" as="sourcePoint" />
            <Array as="points">
              <mxPoint x="819" y="600" />
              <mxPoint x="820" y="600" />
              <mxPoint x="820" y="280" />
            </Array>
          </mxGeometry>
        </mxCell>
        <mxCell id="vkS8wHCYkv136eXItXBd-107" value="" style="edgeStyle=orthogonalEdgeStyle;rounded=0;orthogonalLoop=1;jettySize=auto;html=1;strokeColor=#FF9999;strokeWidth=2;endArrow=none;" edge="1" parent="vkS8wHCYkv136eXItXBd-48" source="vkS8wHCYkv136eXItXBd-85">
          <mxGeometry relative="1" as="geometry">
            <mxPoint x="800" y="510" as="targetPoint" />
            <Array as="points">
              <mxPoint x="910" y="510" />
            </Array>
            <mxPoint x="910" y="415" as="sourcePoint" />
          </mxGeometry>
        </mxCell>
        <mxCell id="vkS8wHCYkv136eXItXBd-108" value="" style="group" vertex="1" connectable="0" parent="1">
          <mxGeometry x="70" y="830" width="1240" height="1490" as="geometry" />
        </mxCell>
        <mxCell id="vkS8wHCYkv136eXItXBd-109" value="" style="group;fillColor=none;" vertex="1" connectable="0" parent="vkS8wHCYkv136eXItXBd-108">
          <mxGeometry x="10" y="600" width="1080" height="570" as="geometry" />
        </mxCell>
        <mxCell id="vkS8wHCYkv136eXItXBd-110" value="&lt;font style=&quot;font-size: 12px;&quot;&gt;&lt;span style=&quot;color: rgb(66, 66, 66); font-family: Roboto, sans-serif; text-align: start; background-color: rgb(255, 255, 255);&quot;&gt;request_slot_created,&lt;br&gt;&lt;/span&gt;&lt;span style=&quot;color: rgb(66, 66, 66); font-family: Roboto, sans-serif; text-align: start; background-color: rgb(255, 255, 255);&quot;&gt;request_slot_updated&lt;/span&gt;&lt;/font&gt;" style="shape=process;whiteSpace=wrap;html=1;backgroundOutline=1;" vertex="1" parent="vkS8wHCYkv136eXItXBd-109">
          <mxGeometry x="14" y="60" width="186" height="40" as="geometry" />
        </mxCell>
        <mxCell id="vkS8wHCYkv136eXItXBd-111" value="&lt;p&gt;&lt;font face=&quot;noto_regular&quot; color=&quot;#606060&quot;&gt;&lt;span style=&quot;font-size: 13.3333px;&quot;&gt;Сейчас их 2, а можно объединить в 1. Информации хватает&lt;/span&gt;&lt;/font&gt;&lt;/p&gt;" style="shape=callout;whiteSpace=wrap;html=1;perimeter=calloutPerimeter;size=30;position=0.34;position2=0.26;base=20;" vertex="1" parent="vkS8wHCYkv136eXItXBd-109">
          <mxGeometry width="430" height="60" as="geometry" />
        </mxCell>
        <mxCell id="vkS8wHCYkv136eXItXBd-112" value="" style="group" vertex="1" connectable="0" parent="vkS8wHCYkv136eXItXBd-109">
          <mxGeometry x="220" y="60" width="404" height="190" as="geometry" />
        </mxCell>
        <mxCell id="vkS8wHCYkv136eXItXBd-113" value="&lt;span style=&quot;color: rgb(66, 66, 66); font-family: Roboto, sans-serif; text-align: start; background-color: rgb(255, 255, 255);&quot;&gt;request_slot_deleted&lt;/span&gt;" style="shape=process;whiteSpace=wrap;html=1;backgroundOutline=1;" vertex="1" parent="vkS8wHCYkv136eXItXBd-112">
          <mxGeometry x="-220" y="130" width="186" height="30" as="geometry" />
        </mxCell>
        <mxCell id="vkS8wHCYkv136eXItXBd-114" value="&lt;p&gt;&lt;font face=&quot;noto_regular&quot; color=&quot;#606060&quot;&gt;&lt;span style=&quot;font-size: 13.3333px;&quot;&gt;Все ок&lt;/span&gt;&lt;/font&gt;&lt;/p&gt;" style="shape=callout;whiteSpace=wrap;html=1;perimeter=calloutPerimeter;size=30;position=0.34;position2=0.26;base=20;" vertex="1" parent="vkS8wHCYkv136eXItXBd-112">
          <mxGeometry x="-204" y="70" width="290" height="60" as="geometry" />
        </mxCell>
        <mxCell id="vkS8wHCYkv136eXItXBd-115" value="" style="group" vertex="1" connectable="0" parent="vkS8wHCYkv136eXItXBd-109">
          <mxGeometry x="-0.0008695652173855706" y="310" width="885.5708695652174" height="250" as="geometry" />
        </mxCell>
        <mxCell id="vkS8wHCYkv136eXItXBd-116" value="" style="group;fillColor=none;" vertex="1" connectable="0" parent="vkS8wHCYkv136eXItXBd-115">
          <mxGeometry x="200.00565217391306" width="685.5652173913044" height="250" as="geometry" />
        </mxCell>
        <mxCell id="vkS8wHCYkv136eXItXBd-117" value="" style="whiteSpace=wrap;html=1;shape=mxgraph.basic.document;fillColor=#D4E1F5;" vertex="1" parent="vkS8wHCYkv136eXItXBd-116">
          <mxGeometry width="685.5652173913044" height="250" as="geometry" />
        </mxCell>
        <mxCell id="vkS8wHCYkv136eXItXBd-118" value="&lt;p style=&quot;&quot; data-pm-slice=&quot;1 1 []&quot;&gt;&lt;font style=&quot;font-size: 12px;&quot;&gt;Проблема № 1.&lt;/font&gt;&lt;/p&gt;&lt;p style=&quot;&quot; data-pm-slice=&quot;1 1 []&quot;&gt;&lt;/p&gt;&lt;font style=&quot;font-size: 12px;&quot;&gt;&lt;font style=&quot;font-size: 12px;&quot;&gt;События:&amp;nbsp;&lt;i&gt;&lt;b&gt;request_slot_booking_created&lt;/b&gt;&lt;/i&gt; (bookIdle) и&amp;nbsp;&lt;i&gt;&lt;b&gt;request_slot_booking_canceled&lt;/b&gt;&lt;/i&gt; (cancelIdleBooking) &lt;br&gt;относятся к сущности&lt;i&gt;&lt;b&gt; idle-booking&lt;/b&gt;&lt;/i&gt;.&lt;br&gt;&lt;br&gt;А события&amp;nbsp;&lt;/font&gt;&lt;b&gt;&lt;i&gt;request_slot_approved&lt;/i&gt;&lt;/b&gt; (approveSlot) и&amp;nbsp;&lt;i&gt;&lt;b&gt;request_slot_approve_canceled&lt;/b&gt;&lt;/i&gt; (revertSlotApprove) &lt;br&gt;относятся к сущности &lt;i&gt;&lt;b&gt;request-slot&lt;/b&gt;&lt;/i&gt;. &lt;br&gt;&lt;br&gt;Надо либо все события привязать к&amp;nbsp;&lt;b style=&quot;font-style: italic;&quot;&gt;request-slot &lt;/b&gt;(и эндпоинту слота),&lt;br&gt;либо все привязать к&amp;nbsp;&lt;i&gt;&lt;b&gt;idle-booking&amp;nbsp;&lt;/b&gt;&lt;/i&gt;(и эндпоинту букинга). (мне это кажется более логичным)&lt;br&gt;&lt;br&gt;&lt;br&gt;События букинга можно убрать совсем, вместо них слать нужные события по сущностям: &lt;br&gt;&lt;b&gt;idle_updated&lt;/b&gt; и &lt;b&gt;request_slot_updated&lt;/b&gt;&lt;br&gt;&lt;br&gt;&lt;/font&gt;" style="text;html=1;resizable=0;autosize=1;align=left;verticalAlign=middle;points=[];fillColor=none;strokeColor=none;rounded=0;" vertex="1" parent="vkS8wHCYkv136eXItXBd-116">
          <mxGeometry x="9.996956521739131" width="610" height="230" as="geometry" />
        </mxCell>
        <mxCell id="vkS8wHCYkv136eXItXBd-119" value="&lt;span style=&quot;font-family: noto_regular; color: rgb(96, 96, 96); font-size: 10pt;&quot;&gt;Booking&lt;/span&gt;" style="shape=process;whiteSpace=wrap;html=1;backgroundOutline=1;" vertex="1" parent="vkS8wHCYkv136eXItXBd-115">
          <mxGeometry y="80" width="187.82608695652175" height="60" as="geometry" />
        </mxCell>
        <mxCell id="vkS8wHCYkv136eXItXBd-120" value="" style="group" vertex="1" connectable="0" parent="vkS8wHCYkv136eXItXBd-108">
          <mxGeometry width="1240" height="1490" as="geometry" />
        </mxCell>
        <mxCell id="vkS8wHCYkv136eXItXBd-121" value="" style="group" vertex="1" connectable="0" parent="vkS8wHCYkv136eXItXBd-120">
          <mxGeometry y="300" width="1240" height="270" as="geometry" />
        </mxCell>
        <mxCell id="vkS8wHCYkv136eXItXBd-122" value="" style="group" vertex="1" connectable="0" parent="vkS8wHCYkv136eXItXBd-121">
          <mxGeometry width="1240" height="270" as="geometry" />
        </mxCell>
        <mxCell id="vkS8wHCYkv136eXItXBd-123" value="" style="group;fillColor=none;" vertex="1" connectable="0" parent="vkS8wHCYkv136eXItXBd-122">
          <mxGeometry x="10" width="1000" height="265" as="geometry" />
        </mxCell>
        <mxCell id="vkS8wHCYkv136eXItXBd-124" value="&lt;p style=&quot;text-align: left; line-height: 0;&quot;&gt;&lt;font face=&quot;noto_regular&quot;&gt;&lt;span style=&quot;font-size: 13.3333px;&quot;&gt;В&amp;nbsp;&lt;b&gt;relationships&amp;nbsp;&lt;/b&gt;всегда должна быть информация:&amp;nbsp;&lt;/span&gt;&lt;/font&gt;&lt;/p&gt;&lt;p style=&quot;text-align: left;&quot;&gt;&lt;font face=&quot;noto_regular&quot;&gt;&lt;span style=&quot;font-size: 13.3333px;&quot;&gt;&lt;b&gt;idleReason, booking, user, sender, project&lt;/b&gt;&lt;/span&gt;&lt;/font&gt;&lt;/p&gt;&lt;p style=&quot;text-align: left; line-height: 0;&quot;&gt;&lt;font face=&quot;noto_regular&quot;&gt;&lt;span style=&quot;font-size: 13.3333px;&quot;&gt;Сейчас не хватает:&amp;nbsp;&lt;/span&gt;&lt;/font&gt;&lt;/p&gt;&lt;p style=&quot;text-align: left;&quot;&gt;&lt;font face=&quot;noto_regular&quot;&gt;&lt;span style=&quot;font-size: 13.3333px;&quot;&gt;&lt;b&gt;idleReason, sender, project&lt;/b&gt;&lt;/span&gt;&lt;/font&gt;&lt;/p&gt;&lt;p&gt;&lt;strong style=&quot;font-family: noto_regular; color: rgb(96, 96, 96); font-size: 10pt;&quot;&gt;&lt;/strong&gt;&lt;/p&gt;&lt;p&gt;&lt;strong style=&quot;font-family: noto_regular; color: rgb(96, 96, 96); font-size: 10pt;&quot;&gt;&lt;em&gt;Парадокс. Меняю проект у idle, но проект не приходит в relationships&lt;/em&gt;&lt;/strong&gt;&lt;/p&gt;" style="shape=callout;whiteSpace=wrap;html=1;perimeter=calloutPerimeter;size=30;position=0.34;position2=0.26;base=20;" vertex="1" parent="vkS8wHCYkv136eXItXBd-123">
          <mxGeometry width="404" height="184.74" as="geometry" />
        </mxCell>
        <mxCell id="vkS8wHCYkv136eXItXBd-125" value="" style="group;fillColor=none;" vertex="1" connectable="0" parent="vkS8wHCYkv136eXItXBd-123">
          <mxGeometry x="420" width="580" height="265" as="geometry" />
        </mxCell>
        <mxCell id="vkS8wHCYkv136eXItXBd-126" value="" style="whiteSpace=wrap;html=1;shape=mxgraph.basic.document;fillColor=#D4E1F5;" vertex="1" parent="vkS8wHCYkv136eXItXBd-125">
          <mxGeometry width="580" height="250" as="geometry" />
        </mxCell>
        <mxCell id="vkS8wHCYkv136eXItXBd-127" value="&lt;p data-pm-slice=&quot;1 1 []&quot;&gt;К этому событию привязать:&lt;/p&gt;&lt;p&gt;Все изменения, касаемые idle:&lt;b&gt;&amp;nbsp;&lt;span style=&quot;background-color: initial;&quot;&gt;project, idleReason, probability, дата, комментарий;&lt;/span&gt;&lt;/b&gt;&lt;/p&gt;&lt;p&gt;Изменения профиля:&amp;nbsp;&lt;span style=&quot;background-color: initial;&quot;&gt;&lt;b&gt;timeZone, уровень английского, грейд; (а еще нет события на cv)&lt;/b&gt;&lt;/span&gt;&lt;/p&gt;&lt;p&gt;Сюда же можно привзяать и создание айдла, т.к.&amp;nbsp;&lt;/p&gt;&lt;p&gt;данные приходящие из центрифуги должны быть одинаковые на событиях изменения и создания,&amp;nbsp;&lt;/p&gt;&lt;p&gt;потому код обработчика для обоих событий одинаковый&amp;nbsp;&lt;/p&gt;&lt;p&gt;(если этот вариант подойдет, то выпилить событие idle_created)&lt;/p&gt;" style="text;html=1;resizable=0;autosize=1;align=left;verticalAlign=middle;points=[];fillColor=none;strokeColor=none;rounded=0;" vertex="1" parent="vkS8wHCYkv136eXItXBd-125">
          <mxGeometry x="5" y="25" width="570" height="200" as="geometry" />
        </mxCell>
        <mxCell id="vkS8wHCYkv136eXItXBd-128" value="&lt;span style=&quot;font-family: noto_regular; color: rgb(96, 96, 96); font-size: 10pt;&quot;&gt;idle_updated&lt;/span&gt;" style="shape=process;whiteSpace=wrap;html=1;backgroundOutline=1;" vertex="1" parent="vkS8wHCYkv136eXItXBd-121">
          <mxGeometry x="14" y="180" width="120" height="30" as="geometry" />
        </mxCell>
        <mxCell id="vkS8wHCYkv136eXItXBd-129" value="" style="group" vertex="1" connectable="0" parent="vkS8wHCYkv136eXItXBd-120">
          <mxGeometry x="10" width="995.5700000000002" height="1490" as="geometry" />
        </mxCell>
        <mxCell id="vkS8wHCYkv136eXItXBd-130" value="" style="group" vertex="1" connectable="0" parent="vkS8wHCYkv136eXItXBd-129">
          <mxGeometry x="30" y="60" width="404" height="190" as="geometry" />
        </mxCell>
        <mxCell id="vkS8wHCYkv136eXItXBd-131" value="&lt;span style=&quot;font-family: noto_regular; color: rgb(96, 96, 96); font-size: 10pt;&quot;&gt;idle_created&lt;/span&gt;" style="shape=process;whiteSpace=wrap;html=1;backgroundOutline=1;" vertex="1" parent="vkS8wHCYkv136eXItXBd-130">
          <mxGeometry x="14" y="130" width="120" height="60" as="geometry" />
        </mxCell>
        <mxCell id="vkS8wHCYkv136eXItXBd-132" value="&lt;p style=&quot;line-height: 0;&quot;&gt;&lt;font face=&quot;noto_regular&quot;&gt;&lt;span style=&quot;font-size: 13.3333px;&quot;&gt;В &lt;b style=&quot;&quot;&gt;relationships &lt;/b&gt;всегда должна быть информация:&amp;nbsp;&lt;/span&gt;&lt;/font&gt;&lt;/p&gt;&lt;p&gt;&lt;font face=&quot;noto_regular&quot;&gt;&lt;span style=&quot;font-size: 13.3333px;&quot;&gt;&lt;b style=&quot;&quot;&gt;idleReason, booking, user, sender, project&lt;/b&gt;&lt;/span&gt;&lt;/font&gt;&lt;/p&gt;&lt;p style=&quot;line-height: 0;&quot;&gt;&lt;font face=&quot;noto_regular&quot;&gt;&lt;span style=&quot;font-size: 13.3333px;&quot;&gt;Сейчас не хватает:&amp;nbsp;&lt;/span&gt;&lt;/font&gt;&lt;/p&gt;&lt;p&gt;&lt;font face=&quot;noto_regular&quot;&gt;&lt;span style=&quot;font-size: 13.3333px;&quot;&gt;&lt;b&gt;idleReason, sender, project&lt;/b&gt;&lt;/span&gt;&lt;/font&gt;&lt;/p&gt;" style="shape=callout;whiteSpace=wrap;html=1;perimeter=calloutPerimeter;size=30;position=0.34;position2=0.26;base=20;align=left;" vertex="1" parent="vkS8wHCYkv136eXItXBd-130">
          <mxGeometry y="10" width="400" height="120" as="geometry" />
        </mxCell>
        <mxCell id="vkS8wHCYkv136eXItXBd-133" value="&lt;span style=&quot;color: rgb(96, 96, 96); font-family: noto_regular; font-size: 13.3333px;&quot;&gt;idle_deleted&lt;/span&gt;" style="shape=process;whiteSpace=wrap;html=1;backgroundOutline=1;" vertex="1" parent="vkS8wHCYkv136eXItXBd-129">
          <mxGeometry x="454" y="190" width="120" height="60" as="geometry" />
        </mxCell>
        <mxCell id="vkS8wHCYkv136eXItXBd-134" value="&lt;p&gt;&lt;font face=&quot;noto_regular&quot; color=&quot;#606060&quot;&gt;&lt;span style=&quot;font-size: 13.3333px;&quot;&gt;Все ок&lt;/span&gt;&lt;/font&gt;&lt;/p&gt;" style="shape=callout;whiteSpace=wrap;html=1;perimeter=calloutPerimeter;size=30;position=0.34;position2=0.26;base=20;" vertex="1" parent="vkS8wHCYkv136eXItXBd-129">
          <mxGeometry x="440" y="130" width="290" height="60" as="geometry" />
        </mxCell>
        <mxCell id="vkS8wHCYkv136eXItXBd-135" value="&lt;font style=&quot;font-size: 25px;&quot;&gt;&lt;i&gt;&lt;b&gt;&lt;u&gt;Websockets&lt;/u&gt;&lt;/b&gt;&lt;/i&gt;&lt;/font&gt;" style="text;html=1;align=center;verticalAlign=middle;resizable=0;points=[];autosize=1;strokeColor=none;fillColor=none;" vertex="1" parent="vkS8wHCYkv136eXItXBd-129">
          <mxGeometry x="210" width="160" height="20" as="geometry" />
        </mxCell>
        <mxCell id="vkS8wHCYkv136eXItXBd-136" value="&lt;font style=&quot;font-size: 11px;&quot;&gt;&lt;span style=&quot;color: rgb(66, 66, 66); font-family: Roboto, sans-serif; text-align: start; background-color: rgb(255, 255, 255);&quot;&gt;&lt;font style=&quot;font-size: 11px;&quot;&gt;project_employee_request_drafted&lt;br&gt;&lt;/font&gt;&lt;/span&gt;&lt;span style=&quot;color: rgb(66, 66, 66); font-family: Roboto, sans-serif; text-align: start; background-color: rgb(255, 255, 255);&quot;&gt;project_employee_request_published&lt;br&gt;&lt;/span&gt;&lt;span style=&quot;color: rgb(66, 66, 66); font-family: Roboto, sans-serif; text-align: start; background-color: rgb(255, 255, 255);&quot;&gt;project_employee_request_updated&lt;br&gt;&lt;/span&gt;&lt;span style=&quot;color: rgb(66, 66, 66); font-family: Roboto, sans-serif; text-align: start; background-color: rgb(255, 255, 255);&quot;&gt;project_employee_request_closed&lt;/span&gt;&lt;/font&gt;&lt;span style=&quot;color: rgb(66, 66, 66); font-family: Roboto, sans-serif; text-align: start; background-color: rgb(255, 255, 255);&quot;&gt;&lt;font style=&quot;font-size: 12px;&quot;&gt;&lt;br&gt;&lt;/font&gt;&lt;/span&gt;" style="shape=process;whiteSpace=wrap;html=1;backgroundOutline=1;" vertex="1" parent="vkS8wHCYkv136eXItXBd-129">
          <mxGeometry y="1290" width="290" height="90" as="geometry" />
        </mxCell>
        <mxCell id="vkS8wHCYkv136eXItXBd-137" value="" style="group;fillColor=none;" vertex="1" connectable="0" parent="vkS8wHCYkv136eXItXBd-129">
          <mxGeometry x="310.0047826086957" y="1240" width="685.5652173913044" height="250" as="geometry" />
        </mxCell>
        <mxCell id="vkS8wHCYkv136eXItXBd-138" value="" style="whiteSpace=wrap;html=1;shape=mxgraph.basic.document;fillColor=#D4E1F5;" vertex="1" parent="vkS8wHCYkv136eXItXBd-137">
          <mxGeometry width="685.5652173913044" height="250" as="geometry" />
        </mxCell>
        <mxCell id="vkS8wHCYkv136eXItXBd-139" value="&lt;p style=&quot;line-height: 0;&quot;&gt;1. При создании новой заявки, если сразу же создать в ней слот, то событие &lt;b&gt;request_slot_created&lt;/b&gt; не тригерится.&amp;nbsp;&lt;/p&gt;&lt;p style=&quot;line-height: 1.4;&quot;&gt;Тут проблема не только в том, что юзер, который открыл 2 вкладки, не будет видеть актуальной инфы по драфтам,&lt;/p&gt;&lt;p style=&quot;line-height: 1.4;&quot;&gt;Проблема по большей части в том, что при публикации заявки этот слот будет не найден. &lt;font color=&quot;#ff0303&quot;&gt;&lt;b&gt;&lt;i&gt;(!!!!)&lt;/i&gt;&lt;/b&gt;&lt;/font&gt;&lt;/p&gt;&lt;p style=&quot;line-height: 1.4;&quot;&gt;&amp;nbsp;&amp;nbsp;&lt;br&gt;2. При создании новой заявки (она создается со статусом draft) не уходит никакого события из-за этого &lt;br&gt;когда у одного и того же пользователя открыты 2 вкладки - в них будут неактуальные данные по &lt;b&gt;draft&lt;/b&gt;-заявкам&amp;nbsp;&lt;/p&gt;&lt;p style=&quot;line-height: 1.4;&quot;&gt;3. Нет события на удаление заявки (Она может быть удалена из статуса draft)&lt;/p&gt;&lt;p style=&quot;line-height: 1.4;&quot;&gt;&lt;br&gt;&lt;/p&gt;" style="text;html=1;resizable=0;autosize=1;align=left;verticalAlign=middle;points=[];fillColor=none;strokeColor=none;rounded=0;" vertex="1" parent="vkS8wHCYkv136eXItXBd-137">
          <mxGeometry x="12.786956521739132" y="30" width="660" height="210" as="geometry" />
        </mxCell>
      </root>
    </mxGraphModel>
  </diagram>
</mxfile>
